<svg width="13" height="20" viewBox="0 0 13 20" fill="none" xmlns="http://www.w3.org/2000/svg">
<path fill-rule="evenodd" clip-rule="evenodd" d="M6.05486 0.0792235C6.03112 0.129511 4.65723 2.42023 3.00179 5.16975C1.34631 7.91924 -0.00448065 10.1722 1.11702e-05 10.1762C0.00450299 10.1803 1.38558 10.9988 3.06905 11.9951C5.81259 13.6189 6.13893 13.8018 6.21733 13.7601C6.28026 13.7266 12.2393 10.2079 12.2869 10.1761C12.2905 10.1738 12.1133 9.87361 11.8932 9.50911C11.5148 8.88257 10.1626 6.63663 7.39619 2.04038C6.72543 0.925911 6.15894 0.00817082 6.13732 0.000941035C6.11571 -0.00628875 6.07861 0.0289364 6.05486 0.0792235ZM0.0575626 11.4471C0.0790592 11.4747 1.44614 13.4042 3.09548 15.7348C4.74482 18.0654 6.10556 19.9846 6.11932 19.9997C6.13307 20.0148 6.52334 19.4921 6.98656 18.8382C10.1328 14.3964 11.9836 11.7868 12.1345 11.5795C12.2142 11.47 12.2615 11.3907 12.2398 11.4032C12.1114 11.4771 7.35733 14.286 6.82613 14.6018C6.47321 14.8116 6.1664 14.9831 6.14434 14.9828C6.12228 14.9825 4.74309 14.1756 3.07943 13.1896C1.41582 12.2036 0.0464935 11.3969 0.0365473 11.3969C0.026561 11.3969 0.0360259 11.4195 0.0575626 11.4471Z" fill="white"/>
</svg>
