<svg width="14" height="14" viewBox="0 0 14 14" fill="none" xmlns="http://www.w3.org/2000/svg">
<path fill-rule="evenodd" clip-rule="evenodd" d="M2.08072 2.26151C1.09686 3.50532 0.226209 4.6067 0.145945 4.70901L0 4.89501L0.693716 7.94931L1.38743 11.0036L4.19372 12.3618L7 13.72L9.80628 12.3618L12.6126 11.0036L13.3063 7.94931L14 4.89501L13.8541 4.70901C13.7738 4.6067 12.9031 3.50532 11.9193 2.26151L10.1305 0H7H3.86955L2.08072 2.26151ZM8.0068 2.12028C7.47062 2.79582 7.01758 3.34854 7 3.34854C6.98242 3.34854 6.52938 2.79582 5.9932 2.12028L5.0184 0.892025H7H8.98159L8.0068 2.12028ZM5.26534 2.61755C5.85554 3.36285 6.3582 4.00446 6.38243 4.0433C6.4203 4.10417 6.3085 4.26357 5.57574 5.19322C4.90435 6.045 4.7087 6.26968 4.6473 6.25927C4.55498 6.24359 1.27878 4.87231 1.23157 4.82958C1.21368 4.8134 1.74609 4.10943 2.41469 3.26525C4.16999 1.04889 4.08526 1.14965 4.14297 1.21047C4.17007 1.23906 4.67514 1.87225 5.26534 2.61755ZM11.4484 3.09357C12.1439 3.97198 12.7038 4.69993 12.6926 4.7112C12.6693 4.73455 9.24657 5.45821 9.23141 5.443C9.226 5.43754 9.42511 4.53409 9.67391 3.43537C9.92271 2.33661 10.1392 1.45086 10.155 1.46704C10.1708 1.48319 10.7528 2.21511 11.4484 3.09357ZM8.71156 3.70204C8.53905 4.4595 8.39132 5.08587 8.38323 5.09394C8.37518 5.10206 8.18922 4.88565 7.97001 4.61305C7.63013 4.19042 7.57787 4.10709 7.6152 4.04716C7.70966 3.89552 8.99415 2.29368 9.0092 2.30877C9.01803 2.31758 8.88406 2.94458 8.71156 3.70204ZM7.38864 5.29717C7.69702 5.68421 7.73548 5.74851 7.67392 5.7737C7.6348 5.78972 7.25277 5.87445 6.82501 5.96203C6.39724 6.04961 6.02466 6.1288 5.99705 6.138C5.96415 6.14896 5.95746 6.13691 5.97761 6.10295C6.0567 5.96971 6.98363 4.83215 7.00638 4.84038C7.02057 4.84553 7.19257 5.05109 7.38864 5.29717ZM12.9337 5.63933C12.9219 5.67688 12.7197 6.55857 12.4843 7.59869C12.2489 8.63881 12.0463 9.5322 12.034 9.58402L12.0118 9.67826L11.9217 9.58402C11.7915 9.4477 9.40936 6.43091 9.38805 6.37531C9.37553 6.34251 9.89553 6.2168 11.1308 5.95407C12.0992 5.74816 12.9058 5.57772 12.9232 5.57538C12.9407 5.573 12.9454 5.60178 12.9337 5.63933ZM2.62048 6.38334C3.42814 6.72288 4.08946 7.0138 4.09008 7.02983C4.09074 7.0459 3.62288 7.64922 3.05042 8.37054C2.18311 9.46338 2.0045 9.66925 1.97911 9.60542C1.96235 9.56327 1.77156 8.73921 1.55515 7.77415C1.33871 6.8091 1.14672 5.96246 1.12848 5.89278C1.11028 5.8231 1.1081 5.76605 1.1237 5.76605C1.13925 5.76605 1.81282 6.04383 2.62048 6.38334ZM8.03503 6.69212C8.02395 6.72967 7.72525 8.04125 7.37126 9.60679C7.0173 11.1723 6.71456 12.4819 6.69858 12.5169C6.674 12.5707 6.34373 12.4228 4.58947 11.5729C3.44548 11.0186 2.50452 10.5501 2.49841 10.5318C2.49231 10.5134 3.06979 9.76361 3.78166 8.86555L5.07604 7.23271L6.49497 6.93165C7.27536 6.76609 7.94567 6.62911 7.98452 6.62728C8.03425 6.6249 8.04923 6.64412 8.03503 6.69212ZM10.1891 8.82495C10.9009 9.72458 11.4851 10.4833 11.4874 10.5109C11.4919 10.5663 7.71059 12.4184 7.67198 12.3797C7.65911 12.3668 7.89803 11.2551 8.20287 9.90921C8.87741 6.93138 8.83219 7.11893 8.86653 7.15749C8.88208 7.17496 9.47722 7.92533 10.1891 8.82495Z" fill="white"/>
</svg>
