<svg xmlns="http://www.w3.org/2000/svg" width="404" height="396" viewBox="0 0 404 396" fill="none">
<path fill-rule="evenodd" clip-rule="evenodd" d="M60.0436 65.2739C31.6523 101.174 6.52775 132.963 4.21156 135.916L0 141.284L20.0187 229.441L40.0373 317.597L121.019 356.798L202 396L282.981 356.798L363.963 317.597L383.981 229.441L404 141.284L399.788 135.916C397.472 132.963 372.348 101.174 343.956 65.2739L292.336 0H202H111.664L60.0436 65.2739ZM231.053 61.1976C215.581 80.6957 202.507 96.6487 202 96.6487C201.493 96.6487 188.419 80.6957 172.947 61.1976L144.817 25.7465H202H259.183L231.053 61.1976ZM151.943 75.5502C168.974 97.0617 183.479 115.581 184.179 116.702C185.272 118.458 182.045 123.059 160.9 149.892C141.525 174.477 135.88 180.962 134.108 180.661C131.444 180.209 36.9019 140.629 35.5396 139.396C35.0234 138.929 50.3872 118.61 69.6809 94.2448C120.334 30.2741 117.889 33.1822 119.554 34.9379C120.336 35.7628 134.911 54.0387 151.943 75.5502ZM330.367 89.2895C350.439 114.643 366.596 135.654 366.272 135.979C365.601 136.653 266.83 157.54 266.392 157.101C266.236 156.944 271.982 130.867 279.161 99.155C286.341 67.4415 292.588 41.8762 293.044 42.3432C293.5 42.8092 310.294 63.9346 330.367 89.2895ZM251.391 106.852C246.413 128.714 242.15 146.793 241.916 147.026C241.684 147.26 236.318 141.014 229.992 133.146C220.184 120.948 218.676 118.543 219.753 116.813C222.479 112.436 259.546 66.2024 259.98 66.6379C260.235 66.8923 256.369 84.9892 251.391 106.852ZM213.215 152.892C222.114 164.063 223.224 165.919 221.447 166.646C220.319 167.109 209.294 169.554 196.95 172.082C184.606 174.61 173.854 176.895 173.058 177.161C172.108 177.477 171.915 177.129 172.497 176.149C174.779 172.304 201.528 139.47 202.184 139.708C202.594 139.856 207.557 145.79 213.215 152.892ZM373.229 162.768C372.889 163.852 367.053 189.3 360.261 219.321C353.468 249.342 347.621 275.128 347.268 276.623L346.625 279.343L344.027 276.623C340.268 272.689 271.527 185.615 270.912 184.01C270.551 183.064 285.557 179.435 321.204 171.852C349.148 165.909 372.424 160.99 372.928 160.922C373.433 160.853 373.567 161.684 373.229 162.768ZM75.6195 184.242C98.9262 194.042 118.01 202.439 118.028 202.902C118.047 203.365 104.546 220.779 88.0264 241.599C62.9983 273.141 57.8441 279.083 57.1113 277.241C56.6277 276.024 51.1222 252.24 44.8773 224.385C38.6312 196.531 33.091 172.094 32.5647 170.083C32.0395 168.072 31.9767 166.425 32.4267 166.425C32.8755 166.425 52.3129 174.443 75.6195 184.242ZM231.868 193.154C231.548 194.238 222.929 232.094 212.713 277.28C202.499 322.467 193.763 360.264 193.302 361.276C192.593 362.827 183.062 358.56 132.439 334.028C99.4267 318.03 72.2732 304.508 72.097 303.978C71.9208 303.448 88.5853 281.807 109.128 255.886L146.48 208.757L187.426 200.068C209.946 195.289 229.289 191.336 230.41 191.283C231.846 191.214 232.278 191.769 231.868 193.154ZM294.027 254.714C314.569 280.68 331.428 302.578 331.493 303.376C331.625 304.974 222.506 358.431 221.391 357.314C221.02 356.942 227.915 324.855 236.711 286.009C256.177 200.06 254.872 205.473 255.863 206.586C256.311 207.091 273.485 228.748 294.027 254.714Z" fill="white" fill-opacity="0.1"/>
</svg>